<svg width="154" height="33" viewBox="0 0 154 33" fill="none" xmlns="http://www.w3.org/2000/svg">
<path fill-rule="evenodd" clip-rule="evenodd" d="M109.678 10.6243L105.246 19.4851C104.96 20.0568 104.603 20.3426 103.959 20.3426C103.316 20.3426 103.03 20.1282 102.673 19.4851L98.0976 10.6243H95.524L100.385 20.1997C100.957 21.4145 101.815 22.5578 103.959 22.5578C106.033 22.5578 106.962 21.343 107.534 20.1997L112.252 10.6243H109.678Z" fill="white"/>
<path fill-rule="evenodd" clip-rule="evenodd" d="M117.184 10.4099C115.111 10.4099 114.182 11.6247 113.61 12.768L108.749 22.3434H111.322L112.824 19.4136H121.474L122.903 22.3434H125.477L120.759 12.768C120.115 11.5532 119.257 10.4099 117.184 10.4099ZM113.967 17.1984L115.898 13.4826C116.184 12.9109 116.541 12.6251 117.184 12.6251C117.828 12.6251 118.114 12.8395 118.471 13.4826L120.33 17.1984H113.967Z" fill="white"/>
<path fill-rule="evenodd" clip-rule="evenodd" d="M144.85 12.9109H154V10.6243H144.492C142.777 10.6243 141.418 11.982 141.418 13.697V19.4851C141.418 21.2001 142.777 22.5578 144.492 22.5578H154V20.2711H144.85C144.206 20.2711 143.706 19.7709 143.706 19.1278V17.6986H154V15.412H143.706V13.9828C143.706 13.4111 144.278 12.9109 144.85 12.9109Z" fill="white"/>
<path fill-rule="evenodd" clip-rule="evenodd" d="M136.486 10.6243H126.978V22.6293H129.337V17.7701H136.557C138.273 17.7701 139.631 16.4124 139.631 14.6974V13.697C139.56 11.982 138.202 10.6243 136.486 10.6243ZM137.272 14.2686C137.272 14.9118 136.772 15.412 136.128 15.412H129.337V12.8395H136.128C136.772 12.8395 137.272 13.3397 137.272 13.9828V14.2686Z" fill="white"/>
<path fill-rule="evenodd" clip-rule="evenodd" d="M94.0942 10.5528H90.8773L86.8025 14.3401C86.0877 14.9832 85.1583 15.3405 84.229 15.3405H83.8001V10.4814H81.441V22.4864H83.8001V17.6272H84.1575C85.1583 17.6272 86.0877 17.9845 86.731 18.6276L90.8058 22.4149H94.0227L88.5182 17.2699C88.0178 16.7697 88.0178 15.9836 88.5182 15.4834L94.0942 10.5528Z" fill="white"/>
<path fill-rule="evenodd" clip-rule="evenodd" d="M37.6913 13.697V19.4851C37.6913 21.2001 39.0496 22.5578 40.7653 22.5578H50.3445V15.412H47.9854H43.9822V17.6986H47.9854V20.2711H41.1942C40.5508 20.2711 40.0504 19.7709 40.0504 19.1278V13.9828C40.0504 13.3397 40.5508 12.8395 41.1942 12.8395H50.3445V10.5528H40.7653C39.1211 10.6243 37.6913 11.982 37.6913 13.697Z" fill="white"/>
<path fill-rule="evenodd" clip-rule="evenodd" d="M52.2031 13.697V19.4851C52.2031 21.2001 53.5613 22.5578 55.277 22.5578H64.7847V20.2711H55.6344C54.991 20.2711 54.4906 19.7709 54.4906 19.1278V17.6986H64.7847V15.412H54.5621V13.9828C54.5621 13.3397 55.0625 12.8395 55.7059 12.8395H64.8562V10.5528H55.277C53.5613 10.6243 52.2031 11.982 52.2031 13.697Z" fill="white"/>
<path fill-rule="evenodd" clip-rule="evenodd" d="M66.7148 13.697V19.4851C66.7148 21.2001 68.0731 22.5578 69.7888 22.5578H79.2965V20.2711H70.1462C69.5028 20.2711 69.0024 19.7709 69.0024 19.1278V17.6986H79.2965V15.412H69.0739V13.9828C69.0739 13.3397 69.5743 12.8395 70.2177 12.8395H79.368V10.5528H69.7888C68.0731 10.6243 66.7148 11.982 66.7148 13.697Z" fill="white"/>
<path fill-rule="evenodd" clip-rule="evenodd" d="M7.3095 15.9122C9.31113 13.9113 15.6734 7.62301 19.3907 3.83572L16.6742 1.1203C16.1738 0.620096 15.316 0.620096 14.7441 1.1203L0.375305 15.5549C-0.125102 16.0551 -0.125102 16.9126 0.375305 17.4843L11.6702 28.7747L15.3875 22.1291C15.5305 21.8432 15.459 21.4145 15.173 21.2716C12.5995 19.8424 10.026 18.4132 7.45248 16.9841C7.23802 16.9126 7.16653 16.6982 7.09505 16.4838C7.09505 16.2695 7.16653 16.0551 7.3095 15.9122Z" fill="white"/>
<path fill-rule="evenodd" clip-rule="evenodd" d="M20.5345 4.97906L16.0309 15.8407C15.9594 15.9836 15.9594 16.198 16.0309 16.3409C16.1023 16.4839 16.2453 16.6268 16.4598 16.6982L23.0365 18.6991C23.251 18.7705 23.394 18.9134 23.4655 19.1993C23.537 19.4136 23.4655 19.628 23.3225 19.8424L12.814 29.918L14.7441 31.8474C15.2445 32.3476 16.1023 32.3476 16.6742 31.8474L31.043 17.4843C31.5435 16.9841 31.5435 16.1266 31.043 15.5549L20.5345 4.97906Z" fill="white"/>
</svg>
