<svg width="54" height="54" viewBox="0 0 54 54" fill="none" xmlns="http://www.w3.org/2000/svg">
<path d="M15.8179 0.188954C12.9451 0.324495 10.9832 0.782956 9.26816 1.45688C7.49316 2.14862 5.9887 3.07688 4.49181 4.57917C2.99491 6.08145 2.07312 7.58698 1.38624 9.36467C0.721491 11.0835 0.271127 13.0469 0.144225 15.9214C0.017324 18.7958 -0.0107563 19.7197 0.00328381 27.0519C0.017324 34.384 0.0497243 35.3031 0.189046 38.1835C0.326207 41.0558 0.783052 43.017 1.45698 44.7326C2.14981 46.5076 3.07699 48.0115 4.57983 49.5089C6.08266 51.0064 7.58712 51.926 9.36914 52.614C11.0864 53.2776 13.0504 53.7301 15.9243 53.856C18.7982 53.9818 19.7232 54.0109 27.0532 53.9969C34.3833 53.9829 35.3061 53.9505 38.186 53.8138C41.0658 53.6772 43.0169 53.2171 44.733 52.5465C46.508 51.852 48.013 50.9264 49.5094 49.4231C51.0057 47.9197 51.927 46.4131 52.6133 44.6343C53.2786 42.9171 53.7306 40.9532 53.8553 38.0814C53.9811 35.1994 54.0108 34.2793 53.9968 26.9482C53.9828 19.6171 53.9498 18.6981 53.8132 15.8188C53.6766 12.9395 53.2192 10.9841 52.5458 9.26747C51.8519 7.49248 50.9258 5.98965 49.4235 4.49115C47.9212 2.99264 46.4135 2.07194 44.6353 1.38722C42.917 0.722476 40.9541 0.269415 38.0801 0.145214C35.2062 0.0210137 34.2812 -0.0108464 26.9485 0.00319363C19.6157 0.0172337 18.6977 0.0485538 15.8179 0.188954ZM16.1332 48.9986C13.5007 48.8842 12.0713 48.4468 11.1188 48.0806C9.8573 47.5946 8.95873 47.0071 8.00941 46.067C7.06008 45.1268 6.47687 44.225 5.98438 42.9663C5.61448 42.0137 5.16898 40.586 5.04585 37.9534C4.91193 35.1082 4.88385 34.2539 4.86819 27.0454C4.85253 19.8369 4.88007 18.9837 5.00481 16.1374C5.11714 13.507 5.55724 12.076 5.92282 11.124C6.40883 9.86093 6.99419 8.96398 7.9365 8.0152C8.87881 7.06642 9.77792 6.48214 11.0378 5.98965C11.9892 5.61813 13.417 5.17641 16.0485 5.05113C18.8959 4.91613 19.7491 4.88913 26.9566 4.87347C34.164 4.85781 35.0194 4.88481 37.8679 5.01009C40.4983 5.12457 41.9298 5.56035 42.8808 5.92809C44.1428 6.4141 45.0408 6.99784 45.9896 7.94176C46.9384 8.88568 47.5232 9.78155 48.0157 11.0441C48.3878 11.9929 48.8295 13.4201 48.9537 16.0531C49.0892 18.9006 49.12 19.7543 49.133 26.9612C49.1459 34.168 49.1206 35.0239 48.9958 37.8692C48.8808 40.5017 48.4445 41.9316 48.0778 42.8853C47.5918 44.1462 47.0059 45.0453 46.063 45.9935C45.1202 46.9418 44.2222 47.5261 42.9618 48.0185C42.0114 48.3895 40.582 48.8323 37.9527 48.9576C35.1053 49.0915 34.252 49.1196 27.0419 49.1353C19.8317 49.1509 18.9812 49.1218 16.1338 48.9986M38.1444 12.5696C38.1455 13.2104 38.3366 13.8366 38.6935 14.3688C39.0505 14.9011 39.5573 15.3155 40.1498 15.5597C40.7423 15.8039 41.3939 15.8669 42.0222 15.7408C42.6506 15.6146 43.2274 15.305 43.6797 14.851C44.132 14.397 44.4395 13.8191 44.5634 13.1903C44.6872 12.5615 44.6218 11.9101 44.3755 11.3185C44.1291 10.7269 43.7128 10.2217 43.1792 9.86668C42.6457 9.51168 42.0188 9.32289 41.378 9.32417C40.5188 9.32588 39.6956 9.66874 39.0892 10.2773C38.4828 10.8859 38.143 11.7105 38.1444 12.5696ZM13.1368 27.027C13.1519 34.6843 19.3706 40.8776 27.0262 40.863C34.6819 40.8484 40.8795 34.6303 40.865 26.973C40.8504 19.3158 34.6301 13.1209 26.9733 13.136C19.3166 13.1512 13.1222 19.3709 13.1368 27.027ZM18 27.0173C17.9965 25.2373 18.5209 23.4961 19.507 22.0141C20.493 20.5321 21.8964 19.3757 23.5396 18.6912C25.1828 18.0068 26.9921 17.825 28.7387 18.1688C30.4853 18.5126 32.0906 19.3666 33.3518 20.6228C34.613 21.879 35.4734 23.481 35.8241 25.2262C36.1749 26.9714 36.0002 28.7814 35.3223 30.4273C34.6443 32.0732 33.4935 33.4811 32.0154 34.473C30.5373 35.4649 28.7982 35.9962 27.0181 35.9997C25.8362 36.0022 24.6653 35.7718 23.5724 35.3217C22.4794 34.8716 21.4859 34.2107 20.6484 33.3765C19.811 32.5424 19.1461 31.5515 18.6917 30.4604C18.2373 29.3692 18.0022 28.1993 18 27.0173Z" fill="black"/>
</svg>
