<svg width="139" height="31" viewBox="0 0 139 31" fill="none" xmlns="http://www.w3.org/2000/svg">
<path d="M23.6096 20.4886C23.6096 19.7751 23.3029 19.0615 22.8941 18.348C22.4853 17.6345 21.8721 17.0229 21.1566 16.5132C19.7257 15.4939 18.2949 14.8823 16.6596 14.5765C15.0243 14.2707 13.389 14.0668 11.7537 13.9649C10.1184 13.8629 8.48309 13.5571 6.95 12.9455C6.33676 12.7417 5.82574 12.4359 5.41691 12.0281C5.11029 11.7223 4.90588 11.2127 4.90588 10.703C5.00809 9.68366 5.41691 9.07206 6.43897 8.56239C7.35882 8.15466 8.38088 7.84886 9.50515 7.74693C10.6294 7.64499 11.5493 7.54306 12.1625 7.64499C14.2066 7.54306 15.9441 7.95079 17.375 8.66433C18.8059 9.37786 19.7257 10.6011 20.4412 12.8436C20.4412 12.8436 20.5434 13.0475 20.6456 13.1494C20.85 13.3533 21.0544 13.2513 21.0544 13.2513C21.361 13.2513 21.5654 13.1494 21.7699 12.8436C21.9743 12.5378 22.0765 12.232 22.0765 11.7223V9.37786C22.0765 8.35853 21.9743 7.74693 21.9743 7.44113C21.8721 7.13533 21.6676 7.03339 21.4632 7.03339C21.4632 7.03339 20.85 6.82953 20.6456 6.72759C20.4412 6.62566 20.0324 6.52373 20.0324 6.52373C18.9081 6.11599 17.4772 5.91213 15.9441 5.70826C14.3088 5.60633 12.8779 5.50439 11.4471 5.50439C9.81176 5.50439 8.17647 5.70826 6.43897 6.11599C4.70147 6.52373 3.16838 7.23726 1.94191 8.15466C0.715441 9.07206 0.102206 10.3972 0 11.8243C0.102206 13.3533 0.817647 14.4745 2.04412 15.29C3.37279 16.1055 4.80368 16.7171 6.33676 17.0229C7.97206 17.3287 9.30074 17.5325 10.3228 17.6345L14.0022 18.1441C15.3309 18.348 16.3529 18.7557 17.2728 19.2654C18.1926 19.7751 18.6015 20.5905 18.7037 21.7118C18.6015 22.8331 18.0904 23.6485 17.1706 24.2601C16.2507 24.8717 15.1265 25.1775 13.9 25.3814C12.6735 25.5853 11.8559 25.5853 10.936 25.6872C8.78971 25.7891 7.15441 25.4833 5.72353 24.8717C4.29265 24.2601 3.27059 22.8331 2.65735 20.6925C2.65735 20.6925 2.55515 20.2847 2.45294 20.1828C2.35074 20.0809 2.24853 20.0809 2.24853 20.0809C1.94191 20.0809 1.7375 20.2847 1.43088 20.6925C1.22647 21.1002 1.02206 21.6099 1.02206 22.1195V25.6872C1.02206 25.993 1.12426 26.1969 1.22647 26.4007C1.53309 26.4007 1.83971 26.5027 2.24853 26.5027C4.08824 27.0123 5.82574 27.4201 7.46103 27.522C9.09632 27.7259 10.425 27.7259 11.4471 27.7259H11.7537C13.2868 27.7259 15.0243 27.522 16.864 27.0123C18.7037 26.6046 20.2368 25.7891 21.5654 24.7698C22.8941 23.6485 23.5074 22.2215 23.6096 20.4886Z" fill="white"/>
<path d="M66.7404 26.8085L65.9228 26.7065L65.0029 26.5027C64.5941 26.2988 64.1853 25.993 63.7764 25.3814C63.3676 24.7698 63.061 24.2601 62.8566 23.6485L58.0529 8.05273V7.95079V7.84886C58.0529 7.44113 58.4617 7.13533 59.075 7.03339L61.0169 6.62566C61.6301 6.52373 62.0389 6.42179 62.1411 6.11599C62.1411 6.01406 62.0389 5.91213 61.8345 5.81019C61.6301 5.70826 61.0169 5.60633 59.9948 5.50439H56.0088C55.1911 5.50439 54.6801 5.50439 54.0669 5.70826C53.4536 5.91213 52.7382 6.42179 52.4316 7.03339L44.7661 22.2215L36.5897 7.03339C36.283 6.42179 35.772 6.01406 35.261 5.81019C34.75 5.50439 34.3411 5.50439 33.7279 5.50439H27.8C27.2889 5.50439 26.8801 5.60633 26.6757 5.70826C26.4713 5.81019 26.3691 5.91213 26.3691 6.01406C26.3691 6.31986 26.7779 6.42179 27.3911 6.52373C28.0044 6.62566 28.6176 6.82953 29.2308 7.23726C29.8441 7.54306 30.1507 8.25659 30.2529 9.17399V9.88753L30.1507 10.4991L26.0625 23.7505C25.858 24.3621 25.6536 24.8717 25.2448 25.4833C24.9382 25.993 24.6316 26.1969 24.1205 26.2988L23.3029 26.5027L22.2808 26.7065C21.7698 26.8085 21.4632 27.0123 21.4632 27.2162C21.4632 27.522 21.6676 27.6239 22.0764 27.7259H23.2007H30.1507C30.8661 27.7259 31.3772 27.7259 31.6838 27.6239C31.9904 27.522 32.0926 27.4201 32.0926 27.3181C31.9904 27.0123 31.6838 26.9104 31.1728 26.7065C30.4573 26.6046 30.1507 26.5027 29.4353 26.1969C28.822 25.993 28.4132 25.7891 28.5154 25.1775L28.6176 24.8717L29.1286 23.2408L30.4573 18.9596L33.0125 10.8049L41.2911 26.5027C41.5978 27.0123 41.9044 27.4201 42.211 27.6239C42.5176 27.8278 42.9264 27.9297 43.233 27.9297C43.8463 27.9297 44.4595 27.6239 44.8683 27.1143C45.3794 26.6046 45.686 25.993 45.9926 25.3814L53.4536 10.703L57.8485 24.7698V24.8717C57.8485 24.9737 57.8485 25.0756 57.8485 25.0756C57.7463 25.6872 57.4397 25.993 56.9286 26.1969L55.1911 26.6046C54.5779 26.7065 54.2713 26.9104 54.2713 27.2162L54.4757 27.4201L55.0889 27.522H66.7404C66.8426 27.522 66.9448 27.4201 67.047 27.3181C67.047 27.2162 67.1492 27.2162 67.1492 27.1143C67.1492 27.0123 67.047 26.8085 67.047 26.8085C66.9448 26.9104 66.8426 26.9104 66.7404 26.8085Z" fill="white"/>
<path d="M97.7088 16.1055C97.6066 13.761 96.6867 11.8243 95.1536 10.1933C93.5183 8.66433 91.5764 7.44113 89.2257 6.62566C86.875 5.81019 84.7286 5.50439 82.5823 5.50439C80.1294 5.50439 77.6764 5.91213 75.2235 6.62566C72.7705 7.44113 70.7264 8.56239 68.8867 10.0914C67.047 11.6204 65.6161 13.4552 65.2073 15.6977C65.1051 16.1055 65.1051 16.819 65.1051 17.2267C65.1051 19.4693 66.1272 21.406 67.558 22.935C69.0911 24.464 70.9308 25.6872 73.1794 26.5027C75.3257 27.3181 77.5742 27.7259 79.8227 27.7259H80.2316C83.1955 27.7259 85.3419 27.3181 87.9992 26.6046C90.6566 25.7891 92.9051 24.5659 94.7448 22.8331C96.4823 20.9983 97.6066 19.0615 97.7088 16.1055ZM82.3779 25.5853C80.436 25.5853 78.5963 25.1775 76.8588 24.464C75.1213 23.6485 73.6904 22.5273 72.5661 21.2021C71.4419 19.7751 70.8286 18.1441 70.8286 16.2074V15.9016V15.4939C71.033 13.9649 71.6463 12.6397 72.6683 11.5185C73.5882 10.3972 74.8147 9.47979 76.2455 8.86819C77.6764 8.25659 79.2095 7.84886 80.7426 7.84886C82.4801 7.84886 84.2176 8.25659 85.8529 9.07206C87.5904 9.88753 88.9191 11.0088 90.0433 12.4359C91.1676 13.8629 91.5764 15.3919 91.6786 17.2267C91.6786 18.9596 91.1676 20.3867 90.2478 21.6099C89.3279 22.8331 88.3058 23.8524 86.7728 24.5659C85.4441 25.1775 84.1154 25.5853 82.3779 25.5853Z" fill="white"/>
<path d="M105.374 9.174C105.374 8.66434 105.579 8.35854 105.681 8.05274C105.988 7.44114 106.601 7.0334 107.316 6.82954L109.156 6.52374C109.871 6.4218 110.076 6.31987 110.076 6.01407C110.076 5.8102 109.871 5.60634 109.463 5.5044H108.543H96.9934H95.9714C95.6647 5.5044 95.4603 5.70827 95.4603 6.01407C95.4603 6.31987 95.7669 6.52374 96.3802 6.52374L98.3221 6.82954C99.0375 7.0334 99.5486 7.3392 99.9574 8.05274C99.9574 8.05274 100.162 8.5624 100.162 9.07207C100.162 9.58174 100.264 11.2127 100.264 11.2127V23.0369C100.162 24.7698 99.753 25.7891 99.0375 26.0949C98.3221 26.5027 97.5044 26.6046 96.789 26.6046C95.9714 26.6046 95.5625 26.8085 95.5625 27.2162C95.5625 27.4201 95.6647 27.6239 96.0736 27.7259H97.0956H108.747H109.769C110.076 27.6239 110.178 27.522 110.28 27.2162C110.28 26.9104 109.974 26.7065 109.36 26.7065L107.521 26.4007C106.805 26.1969 106.294 25.8911 105.885 25.1775C105.783 24.9737 105.681 24.5659 105.681 24.0563L105.579 21.9157V19.877L110.178 16.0035C111.609 18.2461 113.142 20.3867 114.982 22.4253C116.719 24.5659 118.763 26.2988 121.012 27.8278C123.26 29.2549 125.815 30.1723 128.575 30.3761C128.575 30.3761 130.006 30.4781 130.721 30.3761C131.028 30.3761 131.846 30.2742 131.846 30.2742C132.459 30.1723 132.561 30.0703 132.561 29.8665C132.561 29.6626 132.254 29.4587 131.846 29.4587L130.824 29.3568C129.802 29.1529 128.677 28.7452 127.451 28.0317C126.224 27.3181 125.202 26.7065 124.487 25.993C122.852 24.5659 121.216 22.7311 119.683 20.6925L113.96 12.9455L118.968 8.66434C119.683 8.05274 120.296 7.54307 121.012 7.23727C121.625 6.82954 122.34 6.62567 123.056 6.52374C123.056 6.52374 123.567 6.4218 123.874 6.21794C124.078 6.116 124.282 5.91214 124.282 5.70827C124.282 5.5044 124.18 5.5044 124.078 5.40247C123.976 5.30054 123.465 5.30054 123.465 5.30054H113.244C113.04 5.30054 112.835 5.40247 112.733 5.5044C112.631 5.60634 112.631 5.70827 112.631 5.8102C112.631 6.116 112.938 6.31987 113.551 6.4218L115.288 6.7276C115.902 6.82954 116.208 7.0334 116.31 7.3392V7.44114L111.098 11.9262L105.885 16.4113C105.374 14.0668 105.374 11.6204 105.374 9.174Z" fill="white"/>
<path d="M131.13 2.95609H133.685C133.89 2.95609 134.299 2.95609 134.605 3.15996C134.912 3.36383 135.116 3.66963 135.116 4.17929C135.116 4.68896 134.912 5.09669 134.605 5.19863C134.299 5.40249 133.89 5.40249 133.583 5.40249H131.232L131.13 2.95609ZM133.583 6.31989C134.196 6.31989 134.503 6.52376 134.707 6.72762C134.912 6.93149 134.912 7.23729 134.912 7.54309C134.912 7.64503 134.912 8.05276 134.912 8.35856C134.912 8.46049 134.912 8.46049 134.912 8.56242C134.912 8.86823 135.014 9.17403 135.014 9.37789H136.24V9.17403C136.138 9.07209 136.036 8.97016 135.934 8.86823C135.832 8.76629 135.832 8.66436 135.832 8.46049L135.934 7.13536C135.934 6.62569 135.832 6.31989 135.627 6.11603C135.525 5.91216 135.321 5.81023 135.116 5.81023C135.321 5.70829 135.525 5.50443 135.729 5.30056C135.934 4.99476 136.036 4.68896 136.036 4.07736C136.036 3.26189 135.729 2.85416 135.218 2.54836C134.707 2.24256 134.094 2.14062 133.481 2.14062H130.006V9.37789H131.028V6.31989H133.583Z" fill="white"/>
<path d="M133.072 0C129.801 0 127.144 2.54833 127.144 5.8102C127.144 8.97013 129.801 11.6204 133.072 11.6204C136.343 11.6204 139 9.07207 139 5.8102C139 2.54833 136.343 0 133.072 0ZM133.072 11.1107C130.006 11.1107 127.553 8.76627 127.553 5.8102C127.553 2.85413 130.006 0.509667 133.072 0.509667C136.138 0.509667 138.591 2.85413 138.591 5.8102C138.591 8.66433 136.138 11.1107 133.072 11.1107Z" fill="white"/>
</svg>
