<svg width="54" height="54" viewBox="0 0 54 54" fill="none" xmlns="http://www.w3.org/2000/svg">
<path d="M27 54.0001C41.9117 54.0001 54 41.9118 54 27.0001C54 12.0884 41.9117 0.00012207 27 0.00012207C12.0883 0.00012207 0 12.0884 0 27.0001C0 41.9118 12.0883 54.0001 27 54.0001Z" fill="url(#paint0_linear_4_203)"/>
<path fill-rule="evenodd" clip-rule="evenodd" d="M12.1962 26.7057C20.0607 23.2571 25.3177 21.0282 27.9672 19.9347C35.4532 16.8226 37.0093 16.2758 38.0186 16.2338C38.2289 16.2338 38.7336 16.2758 39.07 16.5282C39.3224 16.7384 39.4065 17.0328 39.4485 17.2431C39.4906 17.4534 39.5327 17.916 39.4906 18.2945C39.07 22.5422 37.3457 32.93 36.4205 37.6824C36.042 39.7011 35.285 40.374 34.57 40.4581C33.014 40.5842 31.7943 39.4067 30.2803 38.4394C27.9252 36.8833 26.5794 35.916 24.2663 34.402C21.6168 32.6356 23.3411 31.6683 24.8551 30.1123C25.2336 29.6917 32.1728 23.4254 32.299 22.8366C32.299 22.7525 32.3411 22.5001 32.1728 22.374C32.0046 22.2478 31.7943 22.2898 31.6261 22.3319C31.3738 22.374 27.5887 24.8973 20.2289 29.8599C19.1355 30.6169 18.1682 30.9534 17.285 30.9534C16.3177 30.9534 14.4672 30.4067 13.0794 29.944C11.3971 29.3973 10.0513 29.1029 10.1775 28.1777C10.2616 27.7151 10.9345 27.2104 12.1962 26.7057Z" fill="white"/>
<defs>
<linearGradient id="paint0_linear_4_203" x1="0" y1="26.9806" x2="53.9609" y2="26.9806" gradientUnits="userSpaceOnUse">
<stop/>
<stop offset="0.734375"/>
<stop offset="1"/>
</linearGradient>
</defs>
</svg>
