<svg width="54" height="54" viewBox="0 0 54 54" fill="none" xmlns="http://www.w3.org/2000/svg">
<g clip-path="url(#clip0_4_200)">
<path d="M0 25.8751C0 13.6779 0 7.57925 3.789 3.78912C7.578 -0.00100285 13.6777 0.000122071 25.875 0.000122071H28.125C40.3223 0.000122071 46.422 0.00012207 50.211 3.78912C54 7.57925 54 13.6779 54 25.8751V28.1251C54 40.3224 54 46.4221 50.211 50.2111C46.4209 54.0001 40.3223 54.0001 28.125 54.0001H25.875C13.6777 54.0001 7.57912 54.0001 3.789 50.2111C0 46.421 0 40.3224 0 28.1251V25.8751Z" fill="black"/>
<path fill-rule="evenodd" clip-rule="evenodd" d="M14.625 16.8751H10.6875C9.56252 16.8751 9.33752 17.4039 9.33752 17.9889C9.33752 19.0317 10.6718 24.2045 15.5531 31.0456C18.8066 35.7177 23.391 38.2501 27.5625 38.2501C30.0656 38.2501 30.375 37.6876 30.375 36.719V33.1876C30.375 32.0626 30.6113 31.8376 31.4044 31.8376C31.9894 31.8376 32.9906 32.1301 35.3261 34.3824C37.9958 37.052 38.4356 38.2501 39.9375 38.2501H43.875C45 38.2501 45.5625 37.6876 45.2374 36.5772C44.883 35.4714 43.6084 33.866 41.9164 31.9636C40.9984 30.8791 39.6214 29.7102 39.2051 29.1264C38.6201 28.376 38.7889 28.0419 39.2051 27.3747C39.2051 27.3747 44.0021 20.6169 44.5039 18.323C44.7536 17.4882 44.5039 16.8751 43.3114 16.8751H39.375C38.3738 16.8751 37.9125 17.4039 37.6628 17.9889C37.6628 17.9889 35.6603 22.8691 32.8241 26.0394C31.9061 26.9574 31.4888 27.2499 30.9881 27.2499C30.7384 27.2499 30.3761 26.9574 30.3761 26.1237V18.323C30.3761 17.3217 30.0848 16.8751 29.2511 16.8751H23.0636C22.4381 16.8751 22.0624 17.3397 22.0624 17.7807C22.0624 18.7291 23.4799 18.9485 23.6261 21.617V27.4164C23.6261 28.6876 23.3966 28.9182 22.8949 28.9182C21.5606 28.9182 18.3139 24.0155 16.3879 18.4062C16.0099 17.3139 15.6308 16.8751 14.625 16.8751Z" fill="white"/>
</g>
<defs>
<clipPath id="clip0_4_200">
<rect width="54" height="54" fill="white"/>
</clipPath>
</defs>
</svg>
