<svg width="155" height="88" viewBox="0 0 155 88" fill="none" xmlns="http://www.w3.org/2000/svg">
<path d="M31.7586 0.382378C31.3311 0.604668 30.7668 1.11765 30.4761 1.51093L29.9632 2.24619L29.9119 6.05932L29.8606 9.87245L29.1766 9.97504C28.7491 10.0434 28.3216 10.2657 28.0652 10.5393C27.6719 10.9668 27.6645 11.1175 27.6548 13.6685C27.625 21.5 27.625 21 28.9543 21C30.2836 21 30.625 21.8077 30.3564 14.438C30.3223 13.5 30.4248 12.6425 30.4248 12.6425H36.5635H42.7021V18.0288V23.415H36.5635H30.4248C30.4248 23.415 30.5879 26.1154 30.3564 21.8077C30.125 17.5 31.125 19.5 28.9885 19.4822C27.5241 19.47 27.625 17.5 27.6548 21.7906C27.6845 26.0812 27.6548 23.3979 27.6548 23.3979L17.532 23.4492C7.44347 23.5005 7.39217 23.5005 6.69111 23.8767C4.86149 24.8514 4.24591 26.0312 4.22882 28.4764V30.2205L2.98057 30.2718C2.02301 30.3231 1.62973 30.4257 1.16805 30.7506C0.176297 31.4688 0.124999 31.7424 0.124999 37.4193C0.124999 42.1729 -0.375 47 0.625004 48C1.80012 48.5747 2.16332 49.5643 2.625 49C2.93279 48.6238 2.86088 42.19 2.86088 37.7613V32.9906H3.54485H4.22882V42.0532V51.1158H3.54485H2.86088V48.91C2.86088 46.9436 2.8541 45.3039 2.50179 46.2596C2.00592 45.6269 0.979961 45.6269 0.484083 46.2596C0.125 46.5 0.125 45.5 0.124999 49.2691C0.124999 51.492 0.176297 51.9024 0.484083 52.5008C0.928663 53.39 1.86912 53.8346 3.25416 53.8517H4.22882V69.0187V84.2028L4.6392 85.0578C5.11798 86.0837 5.76775 86.7164 6.7937 87.1781C7.54607 87.5201 7.80256 87.5372 27.9797 87.5372C48.2252 87.5372 48.4133 87.5372 49.1314 87.1952C50.2087 86.6651 51.1833 85.5195 51.5082 84.3909C51.7305 83.6385 51.7818 82.8007 51.7305 80.1674C51.6792 77 51.6621 76.9014 51.2688 76.5766C50.7558 76.1662 50.0377 76.1662 49.5247 76.5766C49.0288 76.1028 49.0288 77 49.0288 80.3213C48.9433 83.6556 48.9262 83.7582 48.5329 84.1857C48.2936 84.4251 47.8319 84.6987 47.507 84.8013C46.5665 85.0578 8.93111 85.0065 8.17874 84.75C7.85385 84.6303 7.44347 84.3396 7.25538 84.0831L6.9134 83.6214L9.46118 80.8685C10.8633 79.3466 12.1629 77.8932 12.351 77.6538C12.6929 77.2092 12.6929 76.9014 12.7442 61.6489L12.7784 46.0886L14.4884 44.3445L16.1983 42.6175V36.496V30.3744L14.1122 28.2541L12.0261 26.1509H29.7751C49.4392 26.1509 48.2936 26.0825 48.7894 27.2624C48.9946 27.7582 49.0288 31.3149 49.0288 50.5002V73.1567L49.0318 78.7372C49.6835 79.2385 51.1862 78.9836 51.6992 78.5562L51.6792 73.208L51.7305 58.5882L51.7647 43.9854L53.03 43.8999C54.4151 43.8144 55.1846 43.4724 55.7659 42.6859C56.1079 42.2242 56.125 42.0019 56.125 37.6929C56.125 33.401 56.1079 33.1616 55.7659 32.717C55.0649 31.7766 54.569 31.5372 53.1326 31.4859L51.7989 31.4175L51.7305 29.0749C51.6792 26.8862 51.645 26.6981 51.1662 25.826C50.2258 24.1161 48.8749 23.415 46.5152 23.415H45.267V17.1738V10.9155L44.8566 10.5051C44.6343 10.2828 44.1726 10.0434 43.8478 9.99215L43.2493 9.87245L43.1809 6.33291C43.1296 2.94726 43.1125 2.75917 42.685 1.95551C42.4285 1.44253 41.9668 0.895355 41.5223 0.58757L40.787 0.0745926L36.6661 0.0232925C32.5965 -0.0280075 32.511 -0.0280075 31.7586 0.382378ZM39.59 2.74207C40.2056 2.94727 40.4792 3.57993 40.4792 4.79398V5.63184H36.5464H32.6136V4.46909C32.6136 3.18665 32.6991 2.98146 33.2975 2.74207C33.8789 2.51978 38.9232 2.50269 39.59 2.74207ZM40.4792 9.05169V9.90665H36.5464H32.6136V9.05169V8.19672H36.5464H40.4792V9.05169ZM10.8462 28.921L13.4624 31.5372V36.496V41.4547L11.9919 42.9082C11.1882 43.7118 10.4187 44.5668 10.2819 44.8233C10.0768 45.2166 10.0426 47.6789 10.0426 60.7256L10.0255 76.1662L8.50362 77.7906L6.98179 79.415L6.96469 53.39V27.3821L7.40927 26.852C7.64866 26.5613 7.93935 26.3219 8.04194 26.3219C8.16164 26.3219 9.40989 27.5018 10.8462 28.921ZM53.4746 37.6929V41.1982H52.6197H51.7647V37.6929V34.1876H52.6197H53.4746V37.6929Z" fill="white"/>
<path d="M8.4181 30.1692C7.68283 30.8874 7.83673 31.4859 9.05077 32.7512C9.97413 33.7259 10.1622 33.8456 10.7607 33.8456C11.6157 33.8456 12.0944 33.3839 12.0944 32.5289C12.0944 31.9989 11.9405 31.7595 11.0172 30.819C9.76894 29.5708 9.15337 29.4169 8.4181 30.1692Z" fill="white"/>
<path d="M8.4181 34.2731C7.68283 34.9912 7.83673 35.5897 9.05077 36.8551C9.97413 37.8297 10.1622 37.9494 10.7607 37.9494C11.6157 37.9494 12.0944 37.4877 12.0944 36.6328C12.0944 36.1027 11.9405 35.8633 11.0172 34.9228C9.76894 33.6746 9.15337 33.5207 8.4181 34.2731Z" fill="white"/>
<path d="M8.4181 38.3769C7.68283 39.0951 7.83673 39.6935 9.05077 40.9589C9.97413 41.9335 10.1622 42.0532 10.7607 42.0532C11.6157 42.0532 12.0944 41.5915 12.0944 40.7366C12.0944 40.2065 11.9405 39.9671 11.0172 39.0267C9.76894 37.7784 9.15337 37.6245 8.4181 38.3769Z" fill="white"/>
<path d="M34.0669 19.2258C33.7933 19.4823 33.6394 19.8414 33.6394 20.1662C33.6394 20.4911 33.7933 20.8502 34.0669 21.1067C34.4602 21.5171 34.5799 21.5342 36.4608 21.5342C38.3417 21.5342 38.4614 21.5171 38.8547 21.1067C39.1283 20.8502 39.2822 20.4911 39.2822 20.1662C39.2822 19.8414 39.1283 19.4823 38.8547 19.2258C38.4614 18.8154 38.3417 18.7983 36.4608 18.7983C34.5799 18.7983 34.4602 18.8154 34.0669 19.2258Z" fill="white"/>
<path d="M38.4786 64.1967C38.1708 64.3335 37.7605 64.6926 37.5724 65.0004C37.2304 65.5475 37.2304 65.7869 37.2646 73.3961L37.3159 81.2446L37.9486 81.826L38.5983 82.4074H40.8212C42.4969 82.4074 43.1809 82.339 43.5571 82.1509C44.5831 81.6208 44.5831 81.6379 44.5831 73.1225C44.5831 65.4962 44.5831 65.3423 44.224 64.8978C43.5913 64.0941 43.0612 63.9402 40.958 63.9402C39.6927 63.9573 38.8377 64.0428 38.4786 64.1967ZM41.8472 67.9585V69.241H40.9067H39.9663V67.9585V66.6761H40.9067H41.8472V67.9585ZM41.8472 73.1738V74.5417H40.9067H39.9663V73.1738V71.8059H40.9067H41.8472V73.1738ZM41.8472 78.4746V79.6715H40.9067H39.9663V78.4746V77.2776H40.9067H41.8472V78.4746Z" fill="white"/>
<path d="M67.1671 52V36.7931H69.4916L76.1391 47.8941H74.9226L81.4616 36.7931H83.786L83.8078 52H81.1357L81.114 40.9859H81.6788L76.1174 50.2621H74.8574L69.2091 40.9859H69.8609V52H67.1671ZM87.9153 52V36.7931H94.1719C95.5188 36.7931 96.6701 37.0103 97.626 37.4448C98.5964 37.8793 99.3422 38.5021 99.8636 39.3131C100.385 40.1241 100.646 41.0872 100.646 42.2024C100.646 43.3176 100.385 44.2807 99.8636 45.0917C99.3422 45.8883 98.5964 46.5038 97.626 46.9383C96.6701 47.3583 95.5188 47.5683 94.1719 47.5683H89.4795L90.7395 46.2866V52H87.9153ZM97.865 52L94.0198 46.4821H97.0395L100.906 52H97.865ZM90.7395 46.5907L89.4795 45.2438H94.0415C95.287 45.2438 96.2212 44.9759 96.8439 44.44C97.4812 43.9041 97.7998 43.1583 97.7998 42.2024C97.7998 41.2321 97.4812 40.4862 96.8439 39.9648C96.2212 39.4434 95.287 39.1828 94.0415 39.1828H89.4795L90.7395 37.7924V46.5907ZM104.414 52.1521C103.921 52.1521 103.501 51.9855 103.154 51.6524C102.806 51.3048 102.632 50.8703 102.632 50.349C102.632 49.7986 102.806 49.3641 103.154 49.0455C103.501 48.7124 103.921 48.5459 104.414 48.5459C104.906 48.5459 105.326 48.7124 105.674 49.0455C106.021 49.3641 106.195 49.7986 106.195 50.349C106.195 50.8703 106.021 51.3048 105.674 51.6524C105.326 51.9855 104.906 52.1521 104.414 52.1521ZM109.109 52V36.7931H115.366C116.713 36.7931 117.864 37.0103 118.82 37.4448C119.79 37.8793 120.536 38.5021 121.057 39.3131C121.579 40.1241 121.839 41.0872 121.839 42.2024C121.839 43.3176 121.579 44.2807 121.057 45.0917C120.536 45.9028 119.79 46.5255 118.82 46.96C117.864 47.3945 116.713 47.6117 115.366 47.6117H110.673L111.933 46.2866V52H109.109ZM111.933 46.5907L110.673 45.2221H115.235C116.481 45.2221 117.415 44.9614 118.038 44.44C118.675 43.9041 118.994 43.1583 118.994 42.2024C118.994 41.2321 118.675 40.4862 118.038 39.9648C117.415 39.4434 116.481 39.1828 115.235 39.1828H110.673L111.933 37.7924V46.5907ZM121.745 52L128.588 36.7931H131.369L138.234 52H135.279L129.392 38.2921H130.522L124.656 52H121.745ZM124.895 48.4807L125.656 46.2648H133.867L134.628 48.4807H124.895ZM140.168 52V36.7931H146.424C147.771 36.7931 148.923 37.0103 149.878 37.4448C150.849 37.8793 151.595 38.5021 152.116 39.3131C152.637 40.1241 152.898 41.0872 152.898 42.2024C152.898 43.3176 152.637 44.2807 152.116 45.0917C151.595 45.8883 150.849 46.5038 149.878 46.9383C148.923 47.3583 147.771 47.5683 146.424 47.5683H141.732L142.992 46.2866V52H140.168ZM150.117 52L146.272 46.4821H149.292L153.159 52H150.117ZM142.992 46.5907L141.732 45.2438H146.294C147.54 45.2438 148.474 44.9759 149.096 44.44C149.734 43.9041 150.052 43.1583 150.052 42.2024C150.052 41.2321 149.734 40.4862 149.096 39.9648C148.474 39.4434 147.54 39.1828 146.294 39.1828H141.732L142.992 37.7924V46.5907Z" fill="white"/>
</svg>
